<svg id="Group_41560" data-name="Group 41560" xmlns="http://www.w3.org/2000/svg" xmlns:xlink="http://www.w3.org/1999/xlink" width="31.022" height="29.342" viewBox="0 0 31.022 29.342">
  <defs>
    <clipPath id="clip-path">
      <rect id="Rectangle_10920" data-name="Rectangle 10920" width="31.022" height="29.342" fill="#1f263a"/>
    </clipPath>
  </defs>
  <g id="Group_41559" data-name="Group 41559" transform="translate(0 0)" clip-path="url(#clip-path)">
    <path id="Path_64389" data-name="Path 64389" d="M15.418,20.914a1.309,1.309,0,0,1-.786-.262L1.524,10.821A1.311,1.311,0,0,1,3.1,8.724l12.321,9.241L27.74,8.724a1.311,1.311,0,0,1,1.573,2.1L16.2,20.652a1.309,1.309,0,0,1-.786.262" transform="translate(0.092 0.782)" fill="#b60615"/>
    <path id="Path_64386" data-name="Path 64386" d="M25.355,29.342H5.667A5.674,5.674,0,0,1,0,23.675V13.024A5.7,5.7,0,0,1,2.272,8.485l9.845-7.364a5.7,5.7,0,0,1,6.788,0L28.75,8.485a5.7,5.7,0,0,1,2.272,4.539V23.675a5.674,5.674,0,0,1-5.667,5.667M13.687,3.22,3.843,10.584a3.062,3.062,0,0,0-1.221,2.439V23.675a3.048,3.048,0,0,0,3.045,3.044H25.355A3.048,3.048,0,0,0,28.4,23.675V13.024a3.062,3.062,0,0,0-1.221-2.439L17.335,3.22a3.064,3.064,0,0,0-3.648,0" transform="translate(0 0)" fill="#1f263a"/>
    <path id="Path_64387" data-name="Path 64387" d="M3.312,25.453a1.311,1.311,0,0,1-.819-2.334l5.462-4.369A1.311,1.311,0,0,1,9.592,20.8L4.13,25.166a1.307,1.307,0,0,1-.818.287" transform="translate(0.185 1.705)" fill="#1f263a"/>
    <path id="Path_64388" data-name="Path 64388" d="M25.771,25.453a1.307,1.307,0,0,1-.818-.287L19.492,20.8a1.311,1.311,0,0,1,1.637-2.047l5.462,4.369a1.311,1.311,0,0,1-.819,2.334" transform="translate(1.754 1.705)" fill="#1f263a"/>
  </g>
</svg>
