<svg id="Group_41558" data-name="Group 41558" xmlns="http://www.w3.org/2000/svg" xmlns:xlink="http://www.w3.org/1999/xlink" width="25.982" height="32.411" viewBox="0 0 25.982 32.411">
  <defs>
    <clipPath id="clip-path">
      <rect id="Rectangle_10919" data-name="Rectangle 10919" width="25.982" height="32.411" fill="#1f263a"/>
    </clipPath>
  </defs>
  <g id="Group_41557" data-name="Group 41557" clip-path="url(#clip-path)">
    <path id="Path_64382" data-name="Path 64382" d="M14.535,19.441a5.4,5.4,0,1,1,3.82-1.58,5.385,5.385,0,0,1-3.82,1.58m0-8.306a2.907,2.907,0,1,0,2.057.85,2.9,2.9,0,0,0-2.057-.85" transform="translate(-1.543 -1.46)" fill="#b60615"/>
    <path id="Path_64383" data-name="Path 64383" d="M15.38,32.411a1.247,1.247,0,0,1-.672-2.3c.108-.068,10.75-6.981,11.161-16.851A10.506,10.506,0,0,0,15.379,2.493a1.247,1.247,0,1,1,0-2.493A13,13,0,0,1,28.36,13.366c-.465,11.183-11.829,18.543-12.311,18.85a1.242,1.242,0,0,1-.668.2" transform="translate(-2.387)" fill="#1f263a"/>
    <path id="Path_64384" data-name="Path 64384" d="M13.144,35.722a1.242,1.242,0,0,1-.668-.2c-.318-.2-7.835-5.055-10.979-12.842-.2-.485-.373-.98-.526-1.469a1.246,1.246,0,0,1,2.379-.745c.134.426.288.858.46,1.281,2.839,7.031,9.936,11.627,10.008,11.672a1.247,1.247,0,0,1-.672,2.3" transform="translate(-0.154 -3.311)" fill="#b60615"/>
    <path id="Path_64385" data-name="Path 64385" d="M1.255,14.56A1.247,1.247,0,0,1,.01,13.366,13,13,0,0,1,12.991,0a1.247,1.247,0,1,1,0,2.493A10.428,10.428,0,0,0,5.407,5.741,10.33,10.33,0,0,0,2.5,13.262a1.248,1.248,0,0,1-1.194,1.3H1.255" transform="translate(0)" fill="#b60615"/>
  </g>
</svg>
