<svg id="Group_41782" data-name="Group 41782" xmlns="http://www.w3.org/2000/svg" xmlns:xlink="http://www.w3.org/1999/xlink" width="24.86" height="29.342" viewBox="0 0 24.86 29.342">
  <defs>
    <clipPath id="clip-path">
      <rect id="Rectangle_11139" data-name="Rectangle 11139" width="24.86" height="29.342" fill="none"/>
    </clipPath>
  </defs>
  <g id="Group_41781" data-name="Group 41781" transform="translate(0 0)" clip-path="url(#clip-path)">
    <path id="Path_64915" data-name="Path 64915" d="M16.412,7.419a1.468,1.468,0,0,1-1.467-1.467V1.468a1.467,1.467,0,0,1,2.934,0V5.952a1.468,1.468,0,0,1-1.467,1.467" transform="translate(-3.981 0)" fill="#b60615"/>
    <path id="Path_64916" data-name="Path 64916" d="M12.43,30.969A12.43,12.43,0,1,1,24.86,18.538,12.444,12.444,0,0,1,12.43,30.969m0-21.926a9.5,9.5,0,1,0,9.5,9.5,9.506,9.506,0,0,0-9.5-9.5" transform="translate(0 -1.627)" fill="#1f263a"/>
    <path id="Path_64917" data-name="Path 64917" d="M19.808,24.806a1.457,1.457,0,0,1-.981-.377l-3.4-3.057a1.464,1.464,0,0,1-.486-1.09V14.1a1.467,1.467,0,0,1,2.934,0v5.525l2.91,2.62a1.467,1.467,0,0,1-.982,2.557" transform="translate(-3.981 -3.366)" fill="#b60615"/>
    <path id="Path_64918" data-name="Path 64918" d="M19.417,2.934H9.983A1.467,1.467,0,1,1,9.983,0h9.434a1.467,1.467,0,1,1,0,2.934" transform="translate(-2.269 0)" fill="#1f263a"/>
  </g>
</svg>
