<svg id="Group_41623" data-name="Group 41623" xmlns="http://www.w3.org/2000/svg" xmlns:xlink="http://www.w3.org/1999/xlink" width="8.734" height="8.531" viewBox="0 0 8.734 8.531">
  <defs>
    <clipPath id="clip-path">
      <rect id="Rectangle_11022" data-name="Rectangle 11022" width="8.734" height="8.532" fill="#fff"/>
    </clipPath>
  </defs>
  <g id="Group_41621" data-name="Group 41621" transform="translate(0 0)" clip-path="url(#clip-path)">
    <path id="Path_64392" data-name="Path 64392" d="M9.175,6.234A3.075,3.075,0,0,1,6.2,3.143V.835a.449.449,0,0,1,.9,0V3.143A2.165,2.165,0,0,0,9.175,5.335a2.165,2.165,0,0,0,2.075-2.192V1.123A.225.225,0,0,0,11.026.9H7.97a.449.449,0,0,1,0-.9h3.056a1.124,1.124,0,0,1,1.123,1.123v2.02A3.075,3.075,0,0,1,9.175,6.234" transform="translate(-4.808 0)" fill="#fff"/>
    <path id="Path_64393" data-name="Path 64393" d="M12.932,33.436h-2.9a.857.857,0,0,1-.856-.856.459.459,0,0,1,.449-.46.44.44,0,0,1,.449.417h2.816a.458.458,0,0,1,.447-.417.44.44,0,0,1,.449.438v.022a.857.857,0,0,1-.856.856" transform="translate(-7.115 -24.904)" fill="#fff"/>
    <path id="Path_64394" data-name="Path 64394" d="M17.889,26.945a.449.449,0,0,1-.449-.449V24.2a.449.449,0,0,1,.9,0v2.3a.449.449,0,0,1-.449.449" transform="translate(-13.522 -18.414)" fill="#fff"/>
    <path id="Path_64395" data-name="Path 64395" d="M35.33,8.01a.449.449,0,0,1-.449-.449V5.418a.449.449,0,0,1,.9,0V7.56a.449.449,0,0,1-.449.449" transform="translate(-27.045 -3.853)" fill="#fff"/>
    <path id="Path_64396" data-name="Path 64396" d="M.449,8.01A.449.449,0,0,1,0,7.56V5.418a.449.449,0,0,1,.9,0V7.56a.449.449,0,0,1-.449.449" transform="translate(0 -3.853)" fill="#fff"/>
  </g>
</svg>
