<svg xmlns="http://www.w3.org/2000/svg" xmlns:xlink="http://www.w3.org/1999/xlink" width="35" height="35" viewBox="0 0 35 35">
  <defs>
    <clipPath id="clip-path">
      <rect id="Rectangle_10912" data-name="Rectangle 10912" width="35" height="35" transform="translate(-0.231 -0.123)" fill="none"/>
    </clipPath>
  </defs>
  <g id="Group_41542" data-name="Group 41542" transform="translate(0.231 0.123)">
    <g id="Group_41538" data-name="Group 41538" clip-path="url(#clip-path)">
      <path id="Path_64356" data-name="Path 64356" d="M24.385,12.924H9.092A1.093,1.093,0,0,1,8,11.832V10.739a8.738,8.738,0,1,1,17.477,0v1.092a1.093,1.093,0,0,1-1.092,1.092m-14.2-2.185H23.292a6.554,6.554,0,1,0-13.108,0" transform="translate(0.738 0.185)" fill="#b60615"/>
      <path id="Path_64357" data-name="Path 64357" d="M16.092,4.37A1.093,1.093,0,0,1,15,3.278V1.092a1.092,1.092,0,0,1,2.185,0V3.278A1.093,1.093,0,0,1,16.092,4.37" transform="translate(1.385)" fill="#b60615"/>
      <rect id="Rectangle_10911" data-name="Rectangle 10911" width="17" height="5" transform="translate(8.769 11.877)" fill="#fff"/>
      <path id="Path_64358" data-name="Path 64358" d="M25.569,16.554H8.092A1.093,1.093,0,0,1,7,15.462V11.092A1.093,1.093,0,0,1,8.092,10H25.569a1.093,1.093,0,0,1,1.092,1.092v4.369a1.093,1.093,0,0,1-1.092,1.092M9.185,14.369H24.477V12.185H9.185Z" transform="translate(0.646 0.923)" fill="#b60615"/>
      <path id="Path_64359" data-name="Path 64359" d="M16.83,28.731A9.867,9.867,0,0,1,7.95,23.25l-.836-1.668A1.093,1.093,0,0,1,9.07,20.6L9.9,22.273a7.6,7.6,0,0,0,6.925,4.273,7.6,7.6,0,0,0,6.927-4.273l.835-1.669a1.093,1.093,0,0,1,1.955.978l-.836,1.668a9.871,9.871,0,0,1-8.882,5.481" transform="translate(0.646 1.846)" fill="#1f263a"/>
      <path id="Path_64360" data-name="Path 64360" d="M33.615,29.292H29.246a6.543,6.543,0,0,1-6.068-4.062A1.093,1.093,0,0,1,25.2,24.4a4.363,4.363,0,0,0,4.047,2.71H32.1L28.459,16.185H6L4.795,19.807a1.092,1.092,0,1,1-2.072-.69l1.456-4.369A1.093,1.093,0,0,1,5.215,14H29.246a1.092,1.092,0,0,1,1.037.747l4.369,13.108a1.094,1.094,0,0,1-1.037,1.437" transform="translate(0.246 1.292)" fill="#1f263a"/>
      <path id="Path_64361" data-name="Path 64361" d="M5.462,28.554H1.092A1.094,1.094,0,0,1,.056,27.117l1.457-4.369a1.092,1.092,0,1,1,2.072.69l-.977,2.932H5.462a4.363,4.363,0,0,0,4.047-2.71,1.093,1.093,0,0,1,2.021.832,6.543,6.543,0,0,1-6.068,4.062" transform="translate(0 2.031)" fill="#1f263a"/>
      <path id="Path_64362" data-name="Path 64362" d="M13.092,32.554A1.093,1.093,0,0,1,12,31.462V27.092a1.092,1.092,0,1,1,2.185,0v4.369a1.093,1.093,0,0,1-1.092,1.092" transform="translate(1.108 2.4)" fill="#1f263a"/>
      <path id="Path_64363" data-name="Path 64363" d="M19.092,32.554A1.093,1.093,0,0,1,18,31.462V27.092a1.092,1.092,0,1,1,2.185,0v4.369a1.093,1.093,0,0,1-1.092,1.092" transform="translate(1.662 2.4)" fill="#1f263a"/>
    </g>
  </g>
</svg>
