<svg xmlns="http://www.w3.org/2000/svg" xmlns:xlink="http://www.w3.org/1999/xlink" width="35" height="29" viewBox="0 0 35 29">
  <defs>
    <clipPath id="clip-path">
      <rect id="Rectangle_10913" data-name="Rectangle 10913" width="35" height="29" transform="translate(-0.231 0.231)" fill="#1f263a"/>
    </clipPath>
  </defs>
  <g id="Group_41541" data-name="Group 41541" transform="translate(0.231 -0.231)">
    <g id="Group_41540" data-name="Group 41540" clip-path="url(#clip-path)">
      <path id="Path_64364" data-name="Path 64364" d="M33.862,0a7.654,7.654,0,0,0-7.017,4.617,14.128,14.128,0,0,0-12.917-3.08,1.092,1.092,0,1,0,.544,2.116A11.944,11.944,0,0,1,26.243,7.105c-.013.179-.027.358-.027.541v9.831a1.093,1.093,0,0,0,1.092,1.092H28.4v1.707A11.994,11.994,0,0,1,8.738,23.515V14a3.272,3.272,0,0,0,2.185-3.076V1.092a1.092,1.092,0,1,0-2.185,0V6.554H6.554V1.092a1.092,1.092,0,0,0-2.185,0V6.554H2.185V1.092A1.092,1.092,0,0,0,0,1.092v9.831A3.272,3.272,0,0,0,2.185,14V26.215a3.269,3.269,0,0,0,6.53.234,14.092,14.092,0,0,0,8.734,3.041,14.37,14.37,0,0,0,2.238-.176A14.123,14.123,0,0,0,28.4,24.346v1.869a3.277,3.277,0,0,0,6.554,0V1.092A1.093,1.093,0,0,0,33.862,0M8.738,10.923a1.094,1.094,0,0,1-1.092,1.092H3.277a1.094,1.094,0,0,1-1.092-1.092V8.738H8.738ZM6.554,26.215a1.094,1.094,0,0,1-1.092,1.092,1.117,1.117,0,0,1-1.092-1.092V14.2H6.554ZM32.769,2.295v14.09H28.4V7.646a5.47,5.47,0,0,1,4.369-5.351m0,23.92a1.094,1.094,0,0,1-1.092,1.092,1.117,1.117,0,0,1-1.092-1.092V20.548h0V18.569h2.185Z" fill="#1f263a"/>
      <path id="Path_64365" data-name="Path 64365" d="M16.554,21.108A6.554,6.554,0,1,0,10,14.554a6.56,6.56,0,0,0,6.554,6.554m0-10.923a4.369,4.369,0,1,1-4.369,4.369,4.374,4.374,0,0,1,4.369-4.369" transform="translate(0.923 0.738)" fill="#b60615"/>
    </g>
  </g>
</svg>
